<svg width="17" height="17" viewBox="0 0 17 17" fill="none" xmlns="http://www.w3.org/2000/svg">
<path d="M12.083 0.75C12.2465 0.75 12.3314 0.795371 12.3984 0.862305L15.54 4.00391C15.6504 4.11424 15.6835 4.20922 15.6836 4.31934C15.6836 4.42964 15.6505 4.52526 15.54 4.63574L12.3984 7.77734C12.3314 7.84426 12.2465 7.88965 12.083 7.88965C11.9195 7.88959 11.8347 7.84439 11.7676 7.77734C11.7005 7.71028 11.6554 7.62538 11.6553 7.46191C11.6553 7.29814 11.7004 7.21264 11.7676 7.14551L12.8555 6.05859L14.1357 4.77832H1.66699V15.1943C1.66699 15.3474 1.62276 15.4417 1.53809 15.5264C1.45358 15.6107 1.36094 15.6537 1.20996 15.6533C1.0569 15.6529 0.962238 15.6084 0.876953 15.5234C0.793434 15.44 0.75 15.3471 0.75 15.1943V5.52832C0.75 5.06445 0.906371 4.68583 1.24023 4.35254C1.53309 4.06019 1.86021 3.904 2.24805 3.86914L2.41797 3.86133H14.1357L11.7676 1.49316C11.7006 1.42609 11.6553 1.34121 11.6553 1.17773C11.6553 1.01422 11.7005 0.929381 11.7676 0.862305C11.8347 0.795236 11.9195 0.75006 12.083 0.75Z" fill="white" stroke="white" stroke-width="1.5"/>
</svg>
