<svg width="32" height="32" viewBox="0 0 32 32" fill="none" xmlns="http://www.w3.org/2000/svg">
<g clip-path="url(#clip0_4_912)">
<path d="M14.5164 17.427C14.6337 17.4268 14.7511 17.4265 14.8685 17.4263C15.1138 17.4259 15.3592 17.4258 15.6046 17.4259C15.9165 17.4259 16.2285 17.425 16.5404 17.4239C16.7828 17.4232 17.0251 17.4231 17.2674 17.4232C17.3823 17.4231 17.4972 17.4228 17.6121 17.4223C18.5079 17.4189 19.379 17.4565 20.2422 17.7226C20.2945 17.7387 20.3469 17.7547 20.4008 17.7713C22.0455 18.3027 23.4618 19.5072 24.2778 21.0278C24.7626 21.9769 25.0662 22.9954 25.0774 24.0661C25.0779 24.1129 25.0784 24.1596 25.0789 24.2078C25.0798 24.306 25.0805 24.4043 25.0809 24.5026C25.0817 24.6023 25.0829 24.702 25.0848 24.8017C25.1054 25.9173 25.1054 25.9173 24.7012 26.3764C24.6657 26.4043 24.6303 26.4322 24.5937 26.4609C24.5583 26.4897 24.5229 26.5186 24.4863 26.5483C24.2698 26.6974 24.1066 26.7655 23.8419 26.7662C23.7851 26.7666 23.7283 26.7671 23.6697 26.7675C23.6076 26.7674 23.5454 26.7672 23.4814 26.7671C23.3821 26.7676 23.3821 26.7676 23.2807 26.7681C23.0581 26.769 22.8355 26.7691 22.6129 26.7691C22.4535 26.7696 22.2942 26.7701 22.1349 26.7707C21.7015 26.7721 21.2681 26.7726 20.8348 26.7729C20.5641 26.7731 20.2934 26.7735 20.0228 26.774C19.2732 26.7752 18.5237 26.7762 17.7742 26.7764C17.7022 26.7764 17.7022 26.7764 17.6288 26.7764C17.5316 26.7765 17.4343 26.7765 17.3371 26.7765C17.2647 26.7765 17.2647 26.7765 17.1909 26.7765C17.1425 26.7766 17.0942 26.7766 17.0444 26.7766C16.2615 26.7768 15.4786 26.7785 14.6957 26.7808C13.8917 26.7832 13.0877 26.7844 12.2837 26.7844C11.8323 26.7845 11.381 26.785 10.9297 26.7868C10.5051 26.7885 10.0806 26.7886 9.656 26.7876C9.5002 26.7875 9.34439 26.7879 9.18859 26.7889C8.97581 26.7902 8.76313 26.7895 8.55036 26.7884C8.48875 26.7892 8.42715 26.79 8.36369 26.7909C7.90988 26.7853 7.60677 26.6623 7.27977 26.3451C6.98243 26.0102 6.92152 25.7247 6.9165 25.2849C6.91598 25.2401 6.91546 25.1954 6.91492 25.1492C6.91371 25.0044 6.91371 24.8596 6.91406 24.7148C6.91408 24.6409 6.91408 24.6409 6.9141 24.5655C6.91951 22.5527 7.57554 20.8069 8.98828 19.3593C10.5087 17.8587 12.4548 17.4278 14.5164 17.427Z" fill="black"/>
<path d="M19.2859 6.31135C20.4672 7.29485 21.1521 8.52982 21.3125 10.0626C21.4175 11.4027 21.0372 12.7511 20.175 13.7908C20.0365 13.9472 19.8943 14.099 19.75 14.2501C19.7162 14.2885 19.6825 14.3269 19.6477 14.3665C18.7983 15.2972 17.4724 15.7388 16.2458 15.8101C14.6545 15.8259 13.3042 15.2784 12.1626 14.1666C11.154 13.103 10.7137 11.7766 10.7239 10.3324C10.7557 9.16241 11.1495 8.00562 11.9375 7.12507C11.9745 7.07931 12.0115 7.03355 12.0496 6.9864C13.8381 4.83281 17.1176 4.69697 19.2859 6.31135Z" fill="black"/>
<path d="M27.375 10.3126C27.4133 10.3406 27.4517 10.3687 27.4912 10.3976C28.3353 11.0558 28.7767 12.0918 28.9375 13.1251C29.061 14.301 28.7198 15.4104 28.0039 16.3439C27.9212 16.4393 27.8366 16.5332 27.75 16.6251C27.7092 16.6685 27.6685 16.7118 27.6265 16.7565C26.8463 17.5132 25.7863 17.8927 24.7109 17.9025C23.485 17.8803 22.4528 17.4163 21.5701 16.5758C21.2188 16.2064 20.984 15.761 20.75 15.3126C20.704 15.2348 20.704 15.2348 20.657 15.1554C20.5824 15.0046 20.5489 14.9183 20.5625 14.7501C20.677 14.567 20.8116 14.4176 20.9573 14.2582C21.6914 13.4376 22.1973 12.1165 22.1863 11.0199C22.1841 10.2161 22.1841 10.2161 22.3577 9.97643C22.5273 9.86798 22.6825 9.80962 22.875 9.75011C22.9572 9.72107 23.0393 9.69184 23.1213 9.66246C24.6066 9.15311 26.1206 9.33894 27.375 10.3126Z" fill="black"/>
<path d="M9.375 9.87505C9.47519 9.91723 9.47519 9.91723 9.5774 9.96025C9.85763 10.2278 9.82455 10.5492 9.84766 10.9219C9.96944 12.3143 10.4258 13.6758 11.4375 14.6875C11.3814 15.593 10.679 16.364 10.0449 16.9427C9.1758 17.6654 8.06028 17.9709 6.94419 17.889C5.8437 17.7724 4.95291 17.2831 4.1875 16.5C4.15044 16.465 4.11338 16.43 4.0752 16.3938C3.84403 16.1571 3.70073 15.87 3.55078 15.5782C3.52994 15.538 3.50909 15.4977 3.48761 15.4563C3.2042 14.88 3.09079 14.3118 3.09766 13.6719C3.09813 13.6094 3.09861 13.5469 3.09909 13.4825C3.1258 12.2719 3.63076 11.2546 4.50025 10.418C5.86416 9.26496 7.79723 9.05359 9.375 9.87505Z" fill="black"/>
<path d="M24.25 19.3125C24.6523 19.3077 25.0546 19.3045 25.457 19.3022C25.5935 19.3013 25.73 19.3 25.8665 19.2984C27.6907 19.2771 29.1454 19.6984 30.5 20.9727C31.5624 22.0651 32.0366 23.4402 32.0279 24.9486C32.0273 25.0912 32.0292 25.2337 32.0311 25.3764C32.0312 25.4683 32.0312 25.5602 32.031 25.6521C32.0311 25.734 32.0312 25.8159 32.0314 25.9003C31.9842 26.2383 31.8482 26.4182 31.589 26.6341C31.3141 26.783 31.1117 26.7837 30.8046 26.7784C30.7204 26.7785 30.7204 26.7785 30.6345 26.7785C30.4498 26.7783 30.2652 26.7764 30.0806 26.7744C29.9522 26.774 29.8238 26.7736 29.6954 26.7734C29.3582 26.7724 29.021 26.77 28.6838 26.7672C28.3394 26.7646 27.995 26.7635 27.6506 26.7622C26.9754 26.7595 26.3002 26.7553 25.625 26.75C25.6468 26.7002 25.6687 26.6504 25.6912 26.5991C25.7196 26.5329 25.748 26.4667 25.7773 26.3985C25.8198 26.3006 25.8198 26.3006 25.863 26.2007C26.3691 24.8367 25.9944 22.8973 25.5 21.5625C25.4731 21.4896 25.4462 21.4167 25.4185 21.3416C25.1254 20.6073 24.6869 19.9672 24.25 19.3125Z" fill="black"/>
<path d="M5.52222 19.3004C5.61856 19.3006 5.61856 19.3006 5.71685 19.3009C5.91931 19.3016 6.12176 19.3032 6.32422 19.3048C6.4626 19.3054 6.60099 19.306 6.73938 19.3065C7.07626 19.3078 7.41313 19.3099 7.75 19.3126C7.34533 19.951 7.34533 19.951 7.17798 20.201C6.27575 21.577 5.98914 23.1339 5.98828 24.754C5.98751 24.8299 5.98675 24.9059 5.98596 24.9841C5.98507 25.5318 6.02781 25.9848 6.25484 26.4852C6.27734 26.535 6.29985 26.5849 6.32303 26.6362C6.34018 26.6738 6.35733 26.7114 6.375 26.7501C5.63177 26.7559 4.88855 26.7603 4.14531 26.763C3.80018 26.7643 3.45507 26.7661 3.10995 26.7689C2.77684 26.7717 2.44375 26.7732 2.11062 26.7738C1.98359 26.7743 1.85655 26.7752 1.72952 26.7765C1.55147 26.7783 1.37347 26.7786 1.1954 26.7785C1.14298 26.7794 1.09057 26.7803 1.03656 26.7812C0.702756 26.7788 0.515148 26.7209 0.249999 26.5001C0.0139032 26.2194 -0.0319343 26.022 -0.0332036 25.6588C-0.0334428 25.6145 -0.033682 25.5702 -0.0339284 25.5246C-0.0340979 25.431 -0.0336411 25.3374 -0.0325933 25.2438C-0.0312742 25.1042 -0.0325717 24.9647 -0.0341802 24.825C-0.0371132 23.2883 0.548454 21.9697 1.625 20.8751C1.67245 20.8268 1.71991 20.7786 1.7688 20.7288C2.776 19.7645 4.14154 19.2857 5.52222 19.3004Z" fill="black"/>
</g>
<defs>
<clipPath id="clip0_4_912">
<rect width="32" height="32" fill="white"/>
</clipPath>
</defs>
</svg>
