<svg width="32" height="32" viewBox="0 0 32 32" fill="none" xmlns="http://www.w3.org/2000/svg">
<g clip-path="url(#clip0_4_919)">
<path d="M17.6151 18.1722C18.4957 18.1688 19.272 18.2087 20.0213 18.4398H20.0223L20.1805 18.4886C21.6266 18.9591 22.8829 20.0245 23.6092 21.3694H23.6102C24.0539 22.2384 24.3182 23.1434 24.3279 24.0745L24.3289 24.2161C24.3298 24.3128 24.3304 24.4095 24.3309 24.5062V24.5081C24.3316 24.6106 24.3329 24.7133 24.3348 24.8157C24.34 25.1004 24.3437 25.2921 24.3406 25.4378C24.3376 25.5842 24.3285 25.639 24.324 25.6575V25.6566C24.3229 25.6585 24.3211 25.6626 24.3172 25.6683C24.295 25.7004 24.2594 25.7401 24.1795 25.8314C24.163 25.8443 24.1465 25.8582 24.1297 25.8714L24.1209 25.8792C24.0949 25.9004 24.0682 25.9212 24.0418 25.9427C23.9734 25.9886 23.944 26.0017 23.9315 26.0062C23.9239 26.0089 23.9024 26.0158 23.8397 26.0159H23.8358C23.7795 26.0164 23.7237 26.0165 23.6658 26.0169H23.4774L23.2772 26.0179C23.0566 26.0188 22.8357 26.0188 22.6131 26.0189H22.6102C22.451 26.0193 22.2918 26.0202 22.1326 26.0208C21.7002 26.0222 21.267 26.0225 20.8338 26.0228C20.5629 26.023 20.2919 26.0233 20.0213 26.0237C19.272 26.025 18.5231 26.0265 17.7742 26.0267H17.0438C16.2601 26.0269 15.4763 26.0282 14.6932 26.0306C13.8901 26.033 13.0871 26.0345 12.284 26.0345C11.8322 26.0345 11.3793 26.0346 10.9266 26.0364C10.504 26.0381 10.0812 26.0384 9.65802 26.0374H9.65704C9.49953 26.0373 9.34106 26.0374 9.18341 26.0384H8.53986C8.48274 26.0392 8.42562 26.0396 8.367 26.0403C8.21103 26.0379 8.12146 26.0164 8.05841 25.9905C7.99891 25.9661 7.92556 25.9226 7.82306 25.8265C7.74636 25.7363 7.71907 25.6772 7.70392 25.6292C7.68378 25.5653 7.66903 25.47 7.66681 25.2767L7.66486 25.1409C7.66369 25.0009 7.66353 24.8601 7.66388 24.7171V24.5677C7.6688 22.7372 8.25723 21.1846 9.52032 19.888C10.8421 18.5867 12.5554 18.1779 14.5164 18.1771H14.5174C14.6348 18.1769 14.7525 18.1763 14.8699 18.1761C15.1146 18.1757 15.3594 18.176 15.6043 18.1761L16.5428 18.1741C16.7839 18.1734 17.0254 18.1731 17.2674 18.1732H17.2684L17.6151 18.1722Z" stroke="black" stroke-width="1.5" stroke-linejoin="round"/>
<path d="M12.633 7.4577C14.128 5.66678 16.9286 5.50463 18.8215 6.90106C19.8458 7.75959 20.4237 8.81024 20.5646 10.1276C20.6537 11.2845 20.3246 12.4273 19.6057 13.3005C19.4782 13.444 19.347 13.5868 19.2082 13.7321L19.1965 13.7429L19.1867 13.7546C19.156 13.7895 19.1254 13.8252 19.0939 13.861C18.4232 14.596 17.3197 14.9921 16.218 15.0593C14.8443 15.0682 13.6967 14.6049 12.7043 13.6462C11.8541 12.7477 11.468 11.6252 11.4738 10.3532C11.5015 9.33238 11.8443 8.3533 12.4963 7.62469L12.509 7.61102L12.5207 7.59637L12.633 7.4577Z" stroke="black" stroke-width="1.5"/>
<path d="M22.1891 10.6609C23.3125 9.30812 25.4394 9.17166 26.8864 10.2361C27.6645 10.8895 28.1006 11.6824 28.2096 12.6794H28.2106C28.2797 13.5611 28.0288 14.4279 27.4869 15.0876C27.3881 15.199 27.2854 15.3104 27.1764 15.4245L27.1656 15.4353L27.1559 15.447C27.1321 15.474 27.1079 15.5013 27.0836 15.529C26.5894 16.0705 25.7627 16.3752 24.9166 16.4284C23.8675 16.4353 22.9956 16.084 22.2369 15.3503C21.599 14.6726 21.3063 13.8258 21.3102 12.8552C21.3314 12.0766 21.5929 11.3381 22.0817 10.7917L22.0944 10.7771L22.1881 10.6599L22.1891 10.6609Z" stroke="black" stroke-width="1.5"/>
<path d="M4.72498 10.6508C5.84841 9.29811 7.97528 9.16165 9.42224 10.226C10.2003 10.8795 10.6365 11.6724 10.7455 12.6694H10.7465C10.8155 13.5511 10.5647 14.4179 10.0228 15.0776C9.92395 15.189 9.8213 15.3004 9.71228 15.4145L9.70154 15.4253L9.69177 15.437C9.66802 15.464 9.64383 15.4913 9.61951 15.519C9.12526 16.0605 8.29861 16.3652 7.45251 16.4184C6.40336 16.4253 5.53145 16.074 4.77283 15.3403C4.13491 14.6625 3.84219 13.8158 3.84607 12.8452C3.8673 12.0666 4.12875 11.328 4.61755 10.7817L4.63025 10.7671L4.724 10.6499L4.72498 10.6508Z" stroke="black" stroke-width="1.5"/>
<path d="M25.875 20.0486C27.5431 20.0291 28.791 20.403 29.9697 21.5046C30.8711 22.436 31.286 23.6089 31.2783 24.9441V24.946L31.2812 25.3865V25.8279C31.2706 25.8855 31.2605 25.9045 31.2559 25.9119C31.2469 25.926 31.2246 25.9511 31.168 26.0027C31.1409 26.013 31.1202 26.0192 31.0996 26.0222C31.0464 26.03 30.9792 26.0309 30.8174 26.0281H30.6348C30.4546 26.0279 30.2738 26.0261 30.0889 26.0242H30.083L29.6973 26.0232L28.6895 26.0173C28.3433 26.0148 27.9972 26.0137 27.6533 26.0125C27.336 26.0112 27.0186 26.0075 26.7012 26.0056C26.877 25.2881 26.8831 24.5125 26.8018 23.7869C26.7142 23.0068 26.5243 22.2371 26.3008 21.5779L26.2031 21.3025C26.1763 21.2297 26.1497 21.1567 26.1221 21.0818L26.1152 21.0632L25.9854 20.7605C25.872 20.5136 25.7445 20.2778 25.6123 20.0505C25.6999 20.0498 25.7874 20.0496 25.875 20.0486Z" stroke="black" stroke-width="1.5" stroke-linejoin="round"/>
<path d="M5.51465 20.05H5.71387V20.0509C5.91441 20.0516 6.11573 20.0532 6.31836 20.0548H6.38477C5.50857 21.5238 5.23994 23.1404 5.23828 24.7462C5.23752 24.8222 5.23712 24.8985 5.23633 24.9767V24.9826C5.23577 25.3238 5.25111 25.6598 5.31934 26.006C4.92705 26.0084 4.53481 26.0114 4.14258 26.0128C3.79682 26.0142 3.45013 26.0159 3.10352 26.0187C2.7724 26.0214 2.44106 26.0229 2.10938 26.0236H2.1084L1.72168 26.0265C1.54796 26.0283 1.3734 26.0286 1.19629 26.0285H1.18262C1.13455 26.0293 1.08641 26.0296 1.03711 26.0304C0.913943 26.0293 0.876451 26.0181 0.864258 26.0138C0.857339 26.0114 0.836072 26.0027 0.786133 25.966C0.746572 25.9129 0.737731 25.8915 0.735352 25.8839C0.728929 25.8637 0.717365 25.8143 0.716797 25.6564V25.6544L0.71582 25.5207C0.71567 25.4312 0.71677 25.3417 0.717773 25.2521V25.2511L0.71582 24.8166C0.715044 23.4961 1.21187 22.3647 2.16016 21.4005C2.20573 21.3542 2.251 21.3076 2.29785 21.2599C3.14744 20.4523 4.31307 20.0372 5.51465 20.05Z" stroke="black" stroke-width="1.5" stroke-linejoin="round"/>
</g>
<defs>
<clipPath id="clip0_4_919">
<rect width="32" height="32" fill="white"/>
</clipPath>
</defs>
</svg>
