<svg width="32" height="32" viewBox="0 0 32 32" fill="none" xmlns="http://www.w3.org/2000/svg">
<g clip-path="url(#clip0_4_912)">
<path d="M14.5164 17.427C14.6337 17.4268 14.7511 17.4266 14.8685 17.4264C15.1139 17.426 15.3592 17.4259 15.6046 17.4259C15.9166 17.4259 16.2285 17.4251 16.5405 17.424C16.7828 17.4233 17.0251 17.4232 17.2674 17.4232C17.3823 17.4231 17.4972 17.4229 17.6121 17.4224C18.5079 17.4189 19.3791 17.4565 20.2422 17.7227C20.2945 17.7387 20.3469 17.7548 20.4008 17.7713C22.0455 18.3028 23.4618 19.5073 24.2779 21.0278C24.7627 21.977 25.0662 22.9955 25.0774 24.0662C25.0779 24.1129 25.0784 24.1597 25.0789 24.2078C25.0798 24.3061 25.0805 24.4044 25.081 24.5027C25.0817 24.6023 25.083 24.702 25.0848 24.8017C25.1054 25.9173 25.1054 25.9173 24.7012 26.3765C24.6657 26.4044 24.6303 26.4322 24.5938 26.4609C24.5583 26.4898 24.5229 26.5186 24.4863 26.5484C24.2698 26.6975 24.1066 26.7656 23.8419 26.7663C23.7851 26.7667 23.7283 26.7671 23.6698 26.7676C23.6076 26.7675 23.5455 26.7673 23.4814 26.7671C23.3821 26.7676 23.3821 26.7676 23.2807 26.7681C23.0581 26.7691 22.8355 26.7691 22.6129 26.7692C22.4536 26.7696 22.2942 26.7702 22.1349 26.7707C21.7015 26.7721 21.2682 26.7727 20.8348 26.773C20.5641 26.7732 20.2935 26.7736 20.0228 26.774C19.2733 26.7753 18.5237 26.7763 17.7742 26.7765C17.7022 26.7765 17.7022 26.7765 17.6288 26.7765C17.5316 26.7765 17.4344 26.7766 17.3371 26.7766C17.2647 26.7766 17.2647 26.7766 17.1909 26.7766C17.1426 26.7766 17.0942 26.7766 17.0444 26.7766C16.2615 26.7769 15.4786 26.7786 14.6957 26.7809C13.8917 26.7833 13.0877 26.7845 12.2837 26.7845C11.8323 26.7845 11.381 26.7851 10.9297 26.7869C10.5051 26.7886 10.0806 26.7886 9.65602 26.7876C9.50022 26.7875 9.34441 26.788 9.18861 26.7889C8.97584 26.7902 8.76315 26.7896 8.55038 26.7884C8.48878 26.7893 8.42718 26.7901 8.36371 26.7909C7.9099 26.7854 7.6068 26.6623 7.27979 26.3451C6.98246 26.0103 6.92154 25.7248 6.91652 25.2849C6.916 25.2402 6.91548 25.1954 6.91495 25.1493C6.91373 25.0045 6.91373 24.8597 6.91408 24.7149C6.9141 24.641 6.9141 24.641 6.91412 24.5656C6.91953 22.5528 7.57556 20.8069 8.9883 19.3594C10.5087 17.8587 12.4548 17.4278 14.5164 17.427Z" fill="black"/>
<path d="M19.2859 6.31129C20.4672 7.29479 21.1521 8.52975 21.3125 10.0625C21.4175 11.4027 21.0372 12.751 20.1751 13.7908C20.0365 13.9472 19.8943 14.099 19.75 14.25C19.7162 14.2884 19.6825 14.3269 19.6477 14.3665C18.7983 15.2972 17.4724 15.7388 16.2459 15.8101C14.6545 15.8259 13.3042 15.2784 12.1626 14.1665C11.1541 13.1029 10.7137 11.7766 10.7239 10.3324C10.7557 9.16235 11.1496 8.00556 11.9375 7.12501C11.9745 7.07925 12.0115 7.03349 12.0496 6.98634C13.8381 4.83275 17.1176 4.6969 19.2859 6.31129Z" fill="black"/>
<path d="M27.375 10.3125C27.4134 10.3405 27.4517 10.3686 27.4912 10.3974C28.3353 11.0557 28.7767 12.0916 28.9375 13.125C29.0611 14.3009 28.7198 15.4102 28.0039 16.3437C27.9212 16.4392 27.8366 16.5331 27.75 16.625C27.7093 16.6683 27.6685 16.7117 27.6265 16.7563C26.8464 17.5131 25.7863 17.8926 24.711 17.9023C23.485 17.8801 22.4528 17.4162 21.5701 16.5757C21.2188 16.2063 20.984 15.7608 20.75 15.3125C20.704 15.2347 20.704 15.2347 20.657 15.1553C20.5824 15.0045 20.549 14.9182 20.5625 14.75C20.6771 14.5668 20.8116 14.4175 20.9573 14.258C21.6914 13.4375 22.1974 12.1164 22.1863 11.0198C22.1841 10.216 22.1841 10.216 22.3577 9.97631C22.5273 9.86786 22.6825 9.8095 22.875 9.74999C22.9572 9.72094 23.0393 9.69172 23.1214 9.66234C24.6066 9.15299 26.1207 9.33882 27.375 10.3125Z" fill="black"/>
<path d="M9.37499 9.87499C9.47517 9.91716 9.47517 9.91716 9.57738 9.96019C9.85761 10.2277 9.82453 10.5491 9.84764 10.9219C9.96943 12.3142 10.4257 13.6757 11.4375 14.6875C11.3814 15.593 10.6789 16.3639 10.0449 16.9426C9.17579 17.6653 8.06027 17.9708 6.94417 17.8889C5.84369 17.7724 4.95289 17.283 4.18749 16.5C4.15043 16.4649 4.11337 16.4299 4.07518 16.3938C3.84401 16.157 3.70071 15.8699 3.55077 15.5781C3.52992 15.5379 3.50908 15.4977 3.4876 15.4562C3.20418 14.8799 3.09078 14.3118 3.09764 13.6719C3.09812 13.6094 3.09859 13.5469 3.09908 13.4825C3.12579 12.2719 3.63074 11.2545 4.50023 10.418C5.86415 9.2649 7.79722 9.05352 9.37499 9.87499Z" fill="black"/>
<path d="M24.25 19.3125C24.6523 19.3077 25.0546 19.3045 25.457 19.3022C25.5935 19.3013 25.73 19.3 25.8665 19.2984C27.6907 19.2771 29.1454 19.6984 30.5 20.9727C31.5624 22.0651 32.0366 23.4402 32.0279 24.9486C32.0273 25.0912 32.0292 25.2337 32.0311 25.3764C32.0312 25.4683 32.0312 25.5602 32.031 25.6521C32.0311 25.734 32.0312 25.8159 32.0314 25.9003C31.9842 26.2383 31.8482 26.4182 31.589 26.6341C31.3141 26.783 31.1117 26.7837 30.8046 26.7784C30.7204 26.7785 30.7204 26.7785 30.6345 26.7785C30.4498 26.7783 30.2652 26.7764 30.0806 26.7744C29.9522 26.774 29.8238 26.7736 29.6954 26.7734C29.3582 26.7724 29.021 26.77 28.6838 26.7672C28.3394 26.7646 27.995 26.7635 27.6506 26.7622C26.9754 26.7595 26.3002 26.7553 25.625 26.75C25.6468 26.7002 25.6687 26.6504 25.6912 26.5991C25.7196 26.5329 25.748 26.4667 25.7773 26.3985C25.8198 26.3006 25.8198 26.3006 25.863 26.2007C26.3691 24.8367 25.9944 22.8973 25.5 21.5625C25.4731 21.4896 25.4462 21.4167 25.4185 21.3416C25.1254 20.6073 24.6869 19.9672 24.25 19.3125Z" fill="black"/>
<path d="M5.52223 19.3003C5.61857 19.3005 5.61857 19.3005 5.71686 19.3008C5.91932 19.3015 6.12177 19.3031 6.32423 19.3047C6.46262 19.3053 6.601 19.3059 6.73939 19.3064C7.07627 19.3078 7.41314 19.3098 7.75001 19.3125C7.34534 19.951 7.34534 19.951 7.17799 20.2009C6.27577 21.577 5.98915 23.1338 5.98829 24.7539C5.98753 24.8298 5.98676 24.9058 5.98597 24.984C5.98508 25.5318 6.02782 25.9847 6.25485 26.4851C6.27735 26.535 6.29986 26.5848 6.32304 26.6362C6.34019 26.6737 6.35734 26.7113 6.37501 26.75C5.63178 26.7558 4.88856 26.7602 4.14532 26.7629C3.80019 26.7642 3.45508 26.766 3.10997 26.7689C2.77685 26.7716 2.44376 26.7731 2.11064 26.7737C1.9836 26.7742 1.85657 26.7751 1.72954 26.7764C1.55148 26.7782 1.37348 26.7785 1.19541 26.7784C1.143 26.7793 1.09058 26.7802 1.03657 26.7811C0.702767 26.7788 0.51516 26.7208 0.250011 26.5C0.0139147 26.2193 -0.0319229 26.0219 -0.0331922 25.6587C-0.0334313 25.6144 -0.0336705 25.5702 -0.033917 25.5245C-0.0340864 25.4309 -0.0336296 25.3373 -0.0325818 25.2437C-0.0312628 25.1041 -0.0325602 24.9646 -0.0341687 24.8249C-0.0371018 23.2882 0.548466 21.9696 1.62501 20.875C1.67246 20.8267 1.71992 20.7785 1.76881 20.7288C2.77601 19.7644 4.14155 19.2856 5.52223 19.3003Z" fill="black"/>
</g>
<defs>
<clipPath id="clip0_4_912">
<rect width="32" height="32" fill="white"/>
</clipPath>
</defs>
</svg>
