<svg width="32" height="32" viewBox="0 0 32 32" fill="none" xmlns="http://www.w3.org/2000/svg">
<path d="M17.6141 17.9221C18.4997 17.9187 19.3074 17.9578 20.0945 18.2004H20.0955C20.1454 18.2157 20.1956 18.2306 20.2469 18.2463V18.2473C21.762 18.7369 23.0744 19.8497 23.8318 21.2551H23.8328C24.2903 22.1509 24.5667 23.0938 24.5769 24.0715C24.5774 24.1183 24.5784 24.165 24.5789 24.2131C24.5797 24.3105 24.5804 24.4078 24.5809 24.5051V24.5061C24.5816 24.6076 24.5829 24.7093 24.5848 24.8108C24.5957 25.4064 24.5947 25.6001 24.5662 25.717C24.553 25.7713 24.5436 25.7953 24.3514 26.0149C24.3294 26.0322 24.3075 26.0499 24.285 26.0676L24.2781 26.0735C24.2485 26.0976 24.2185 26.1212 24.1883 26.1458C24.1062 26.2013 24.0559 26.2271 24.0154 26.2415C23.9769 26.2551 23.9273 26.2657 23.8406 26.2659H23.8377C23.7812 26.2663 23.725 26.2664 23.6668 26.2668H23.4793C23.38 26.2673 23.3795 26.2673 23.2781 26.2678C23.0569 26.2688 22.8356 26.2688 22.6131 26.2688H22.6111L22.1326 26.2708C21.7002 26.2721 21.2676 26.2724 20.8348 26.2727C20.564 26.2729 20.2929 26.2732 20.0223 26.2737C19.2728 26.2749 18.5233 26.2764 17.7742 26.2766H17.0447C16.2612 26.2768 15.4773 26.2782 14.6941 26.2805C13.8907 26.2829 13.0874 26.2844 12.284 26.2844C11.8323 26.2845 11.3798 26.2846 10.9275 26.2864C10.5043 26.2881 10.0807 26.2884 9.65702 26.2874H9.65605C9.49921 26.2872 9.34227 26.2883 9.18534 26.2893L8.55351 26.2883H8.54374C8.48506 26.2891 8.4263 26.2895 8.36601 26.2903C8.18604 26.2878 8.06331 26.2628 7.96367 26.2219C7.86802 26.1826 7.76774 26.1181 7.64531 26.0022C7.54178 25.8835 7.49335 25.7922 7.46562 25.7043C7.43453 25.6057 7.41912 25.4817 7.41679 25.2795V25.2786L7.41484 25.1438C7.41366 25.0021 7.41351 24.8598 7.41386 24.7161V24.5667C7.41898 22.677 8.02899 21.0613 9.33964 19.7151C10.7281 18.3447 12.5202 17.9278 14.5164 17.927H14.5174C14.6346 17.9268 14.7518 17.9262 14.8689 17.926C15.1139 17.9257 15.3592 17.926 15.6043 17.926C15.917 17.926 16.2298 17.9251 16.5418 17.9241L17.2674 17.9231L17.6141 17.9221Z" fill="black" stroke="black"/>
<path d="M19.2859 6.31135C20.4672 7.29485 21.1521 8.52982 21.3125 10.0626C21.4175 11.4027 21.0372 12.7511 20.175 13.7908C20.0365 13.9472 19.8943 14.099 19.75 14.2501C19.7162 14.2885 19.6825 14.3269 19.6477 14.3665C18.7983 15.2972 17.4724 15.7388 16.2459 15.8101C14.6545 15.8259 13.3042 15.2784 12.1626 14.1666C11.1541 13.103 10.7137 11.7766 10.7239 10.3324C10.7557 9.16241 11.1495 8.00562 11.9375 7.12507C11.9745 7.07931 12.0115 7.03355 12.0496 6.9864C13.8381 4.83281 17.1176 4.69697 19.2859 6.31135Z" fill="black"/>
</svg>
