<svg width="32" height="32" viewBox="0 0 32 32" fill="none" xmlns="http://www.w3.org/2000/svg">
<path d="M17.614 17.9222C18.4996 17.9188 19.3074 17.9578 20.0945 18.2005H20.0955C20.1454 18.2158 20.1956 18.2307 20.2469 18.2464V18.2474C21.7619 18.737 23.0744 19.8498 23.8318 21.2552H23.8328C24.2903 22.151 24.5667 23.0939 24.5769 24.0716C24.5774 24.1183 24.5784 24.165 24.5789 24.2132C24.5797 24.3105 24.5804 24.4079 24.5808 24.5052V24.5062C24.5816 24.6077 24.5829 24.7093 24.5847 24.8109C24.5957 25.4064 24.5947 25.6002 24.5662 25.7171C24.553 25.7714 24.5436 25.7954 24.3513 26.015C24.3294 26.0322 24.3075 26.05 24.2849 26.0677L24.2781 26.0735C24.2485 26.0977 24.2185 26.1212 24.1883 26.1458C24.1062 26.2014 24.0558 26.2272 24.0154 26.2415C23.9769 26.2552 23.9272 26.2657 23.8406 26.2659H23.8377C23.7812 26.2664 23.725 26.2665 23.6668 26.2669H23.4793C23.38 26.2674 23.3794 26.2674 23.2781 26.2679C23.0569 26.2688 22.8356 26.2688 22.6131 26.2689H22.6111L22.1326 26.2708C21.7002 26.2722 21.2676 26.2725 20.8347 26.2728C20.564 26.273 20.2928 26.2733 20.0222 26.2737C19.2728 26.275 18.5233 26.2765 17.7742 26.2767H17.0447C16.2612 26.2769 15.4773 26.2782 14.6941 26.2806C13.8907 26.283 13.0874 26.2845 12.284 26.2845C11.8323 26.2845 11.3798 26.2846 10.9275 26.2864C10.5043 26.2881 10.0807 26.2884 9.65701 26.2874H9.65604C9.4992 26.2873 9.34226 26.2884 9.18533 26.2894L8.5535 26.2884H8.54373C8.48505 26.2892 8.42629 26.2895 8.366 26.2903C8.18603 26.2878 8.0633 26.2629 7.96365 26.222C7.868 26.1827 7.76773 26.1182 7.64529 26.0023C7.54177 25.8836 7.49334 25.7922 7.46561 25.7044C7.43452 25.6058 7.4191 25.4817 7.41678 25.2796V25.2786L7.41483 25.1439C7.41364 25.0021 7.4135 24.8598 7.41385 24.7161V24.5667C7.41897 22.6771 8.02897 21.0613 9.33963 19.7151C10.7281 18.3448 12.5202 17.9279 14.5164 17.9271H14.5174C14.6346 17.9269 14.7517 17.9263 14.8689 17.9261C15.1139 17.9257 15.3592 17.926 15.6043 17.9261C15.917 17.9261 16.2298 17.9252 16.5418 17.9241L17.2674 17.9232L17.614 17.9222Z" fill="black" stroke="black"/>
<path d="M19.2859 6.31129C20.4672 7.29479 21.1521 8.52975 21.3125 10.0625C21.4175 11.4027 21.0372 12.751 20.1751 13.7908C20.0365 13.9472 19.8943 14.099 19.75 14.25C19.7162 14.2884 19.6825 14.3269 19.6477 14.3665C18.7983 15.2972 17.4724 15.7388 16.2459 15.8101C14.6545 15.8259 13.3042 15.2784 12.1626 14.1665C11.1541 13.1029 10.7137 11.7766 10.7239 10.3324C10.7557 9.16235 11.1496 8.00556 11.9375 7.12501C11.9745 7.07925 12.0115 7.03349 12.0496 6.98634C13.8381 4.83275 17.1176 4.6969 19.2859 6.31129Z" fill="black"/>
</svg>
