<svg width="32" height="32" viewBox="0 0 32 32" fill="none" xmlns="http://www.w3.org/2000/svg">
<path d="M14.5164 17.427C14.6337 17.4268 14.7511 17.4266 14.8685 17.4264C15.1139 17.426 15.3592 17.4259 15.6046 17.4259C15.9166 17.4259 16.2285 17.4251 16.5405 17.424C16.7828 17.4233 17.0251 17.4232 17.2674 17.4232C17.3823 17.4231 17.4972 17.4229 17.6121 17.4224C18.5079 17.4189 19.3791 17.4565 20.2422 17.7227C20.2945 17.7387 20.3469 17.7548 20.4008 17.7713C22.0455 18.3028 23.4618 19.5073 24.2779 21.0278C24.7627 21.977 25.0662 22.9955 25.0774 24.0662C25.0779 24.1129 25.0784 24.1597 25.0789 24.2078C25.0798 24.3061 25.0805 24.4044 25.081 24.5027C25.0817 24.6023 25.083 24.702 25.0848 24.8017C25.1054 25.9173 25.1054 25.9173 24.7012 26.3765C24.6657 26.4044 24.6303 26.4322 24.5938 26.4609C24.5583 26.4898 24.5229 26.5186 24.4863 26.5484C24.2698 26.6975 24.1066 26.7656 23.8419 26.7663C23.7851 26.7667 23.7283 26.7671 23.6698 26.7676C23.6076 26.7675 23.5455 26.7673 23.4814 26.7671C23.3821 26.7676 23.3821 26.7676 23.2807 26.7681C23.0581 26.7691 22.8355 26.7691 22.6129 26.7692C22.4536 26.7696 22.2942 26.7702 22.1349 26.7707C21.7015 26.7721 21.2682 26.7727 20.8348 26.773C20.5641 26.7732 20.2935 26.7736 20.0228 26.774C19.2733 26.7753 18.5237 26.7763 17.7742 26.7765C17.7022 26.7765 17.7022 26.7765 17.6288 26.7765C17.5316 26.7765 17.4344 26.7766 17.3371 26.7766C17.2647 26.7766 17.2647 26.7766 17.1909 26.7766C17.1426 26.7766 17.0942 26.7766 17.0444 26.7766C16.2615 26.7769 15.4786 26.7786 14.6957 26.7809C13.8917 26.7833 13.0877 26.7845 12.2837 26.7845C11.8323 26.7845 11.381 26.7851 10.9297 26.7869C10.5051 26.7886 10.0806 26.7886 9.65602 26.7876C9.50022 26.7875 9.34441 26.788 9.18861 26.7889C8.97584 26.7902 8.76315 26.7896 8.55038 26.7884C8.48878 26.7893 8.42718 26.7901 8.36371 26.7909C7.9099 26.7854 7.6068 26.6623 7.27979 26.3451C6.98246 26.0103 6.92154 25.7248 6.91652 25.2849C6.916 25.2402 6.91548 25.1954 6.91495 25.1493C6.91373 25.0045 6.91373 24.8597 6.91408 24.7149C6.9141 24.641 6.9141 24.641 6.91412 24.5656C6.91953 22.5528 7.57556 20.8069 8.9883 19.3594C10.5087 17.8587 12.4548 17.4278 14.5164 17.427Z" stroke="black" stroke-width="1.5" stroke-linejoin="round"/>
<path d="M12.6329 7.4577C14.1279 5.66678 16.9285 5.50463 18.8214 6.90106C19.8458 7.75959 20.4236 8.81024 20.5646 10.1276C20.6537 11.2845 20.3246 12.4273 19.6056 13.3005C19.4782 13.444 19.3469 13.5868 19.2081 13.7321L19.1964 13.7429L19.1866 13.7546C19.1559 13.7895 19.1254 13.8252 19.0939 13.861C18.4231 14.596 17.3197 14.9921 16.2179 15.0593C14.8443 15.0682 13.6966 14.6049 12.7042 13.6462C11.854 12.7477 11.4679 11.6252 11.4738 10.3532C11.5015 9.33238 11.8442 8.3533 12.4962 7.62469L12.5089 7.61102L12.5206 7.59637L12.6329 7.4577Z" stroke="black" stroke-width="1.5"/>
</svg>
