<svg width="32" height="32" viewBox="0 0 32 32" fill="none" xmlns="http://www.w3.org/2000/svg">
<path d="M14.0001 22.6671C18.7866 22.6671 22.6668 18.7869 22.6668 14.0004C22.6668 9.21394 18.7866 5.33374 14.0001 5.33374C9.21362 5.33374 5.33342 9.21394 5.33342 14.0004C5.33342 18.7869 9.21362 22.6671 14.0001 22.6671Z" stroke="#111111" stroke-width="1.71429" stroke-miterlimit="10"/>
<path d="M26.0606 27.2728C26.3953 27.6075 26.938 27.6075 27.2728 27.2728C27.6075 26.938 27.6075 26.3953 27.2728 26.0606L26.6667 26.6667L26.0606 27.2728ZM20 20L19.3939 20.6061L26.0606 27.2728L26.6667 26.6667L27.2728 26.0606L20.6061 19.3939L20 20Z" fill="#111111"/>
</svg>
