<svg width="32" height="32" viewBox="0 0 32 32" fill="none" xmlns="http://www.w3.org/2000/svg">
<path d="M14.9639 2.34205C15.504 2.7254 15.837 3.23794 16 3.87501C16.0287 4.06466 16.042 4.25402 16.0547 4.44532C16.1438 5.4441 16.4656 6.33134 17.2188 7.02735C17.3112 7.10319 17.4049 7.17756 17.5 7.25001C17.5375 7.27933 17.5751 7.30866 17.6138 7.33887C18.5113 7.96832 19.6121 7.95102 20.6594 7.95788C21.3466 7.96322 21.9458 8.03193 22.4668 8.51856C22.8883 8.98742 23.0198 9.46484 23.0122 10.0835C23.0119 10.1659 23.0119 10.1659 23.0117 10.25C23.011 10.4245 23.0094 10.599 23.0078 10.7734C23.0072 10.8922 23.0066 11.0109 23.0061 11.1296C23.0047 11.4198 23.0026 11.7099 23 12C22.9637 12.0004 22.9273 12.0007 22.8899 12.0011C22.5096 12.0051 22.1294 12.0104 21.7492 12.0164C21.6075 12.0185 21.4658 12.0202 21.3242 12.0217C21.1198 12.0238 20.9155 12.027 20.7112 12.0305C20.6485 12.0309 20.5857 12.0313 20.5211 12.0317C20.0663 12.0411 19.6121 12.0711 19.2813 12.4102C19.0957 12.7117 19.0862 12.9618 19.125 13.3125C19.2621 13.5918 19.4054 13.7443 19.6875 13.875C19.8975 13.9252 20.0953 13.9464 20.3109 13.9503C20.3709 13.9516 20.4309 13.9528 20.4928 13.9541C20.5568 13.9552 20.6208 13.9562 20.6868 13.9573C20.786 13.9592 20.786 13.9592 20.8872 13.9612C21.098 13.9653 21.3088 13.969 21.5195 13.9727C21.6626 13.9754 21.8057 13.9781 21.9489 13.9808C22.2992 13.9876 22.6496 13.9938 23 14C23 14.66 23 15.32 23 16C22.79 16.0023 22.5799 16.0047 22.3635 16.0071C22.1587 16.01 21.9539 16.0132 21.7492 16.0164C21.6075 16.0185 21.4658 16.0202 21.3242 16.0217C21.1198 16.0238 20.9155 16.027 20.7112 16.0305C20.6485 16.0309 20.5857 16.0313 20.5211 16.0317C20.0663 16.0411 19.6121 16.0711 19.2813 16.4102C19.0957 16.7117 19.0862 16.9618 19.125 17.3125C19.2621 17.5918 19.4054 17.7443 19.6875 17.875C19.9467 17.9418 20.2001 17.9466 20.4661 17.9464C20.512 17.9466 20.5579 17.9468 20.6052 17.947C20.7046 17.9475 20.804 17.9478 20.9034 17.948C21.0618 17.9485 21.2201 17.9495 21.3785 17.9506C21.8287 17.9539 22.2789 17.9569 22.7292 17.9579C23.0051 17.9585 23.281 17.9604 23.557 17.963C23.6611 17.9637 23.7652 17.9641 23.8694 17.9639C25.634 17.9621 27.1168 18.5701 28.375 19.8125C29.1416 20.5778 29.6356 21.5484 29.8984 22.5938C29.9142 22.6537 29.9142 22.6537 29.9302 22.7148C29.9969 23.0052 30.0044 23.2826 30.0026 23.5805C30.0022 23.6591 30.0018 23.7377 30.0015 23.8187C30.001 23.8785 30.0005 23.9384 30 24C26.793 24.5776 22.5983 25.2386 19.7525 23.285C18.6773 22.5235 17.7244 21.6111 16.7988 20.6777C16.7575 20.6362 16.7162 20.5946 16.6736 20.5518C15.609 19.4787 14.5913 18.3655 13.5875 17.2358C13.0047 16.5806 12.4102 15.9377 11.8069 15.3013C11.7424 15.2333 11.7424 15.2333 11.6766 15.1638C11.4606 14.9361 11.2445 14.7086 11.0282 14.4811C9.25851 12.6194 7.52404 10.7277 5.8125 8.81251C5.9255 8.5691 6.0817 8.40106 6.27078 8.21404C6.30474 8.17996 6.33871 8.14588 6.3737 8.11077C6.48597 7.99826 6.59869 7.88621 6.71143 7.77418C6.78994 7.69573 6.86844 7.61727 6.94691 7.53878C7.11159 7.37419 7.27648 7.20983 7.44153 7.04561C7.65198 6.83622 7.86203 6.62641 8.07193 6.41646C8.23417 6.25424 8.39657 6.09218 8.55903 5.93018C8.63646 5.85295 8.71385 5.77569 8.7912 5.69838C9.148 5.34202 9.50359 4.98955 9.88732 4.66192C10.099 4.47513 10.2931 4.2707 10.4895 4.06812C10.5815 3.97437 10.6736 3.88067 10.7657 3.78699C10.9085 3.64159 11.0509 3.49596 11.1927 3.34966C12.2431 2.26744 13.476 1.43735 14.9639 2.34205Z" fill="white"/>
<path d="M4.375 10.125C4.66653 10.3685 4.94268 10.6215 5.20995 10.8913C5.26553 10.9471 5.26553 10.9471 5.32224 11.0039C5.40193 11.0838 5.48155 11.1638 5.56111 11.2439C5.68741 11.371 5.81391 11.4979 5.94047 11.6248C6.25466 11.9398 6.56851 12.2552 6.88237 12.5705C7.14806 12.8375 7.41389 13.1043 7.67989 13.3709C7.80381 13.4952 7.92754 13.6197 8.05127 13.7442C8.12816 13.8214 8.20506 13.8985 8.28197 13.9756C8.33259 14.0267 8.33259 14.0267 8.38424 14.0788C8.55753 14.2521 8.73471 14.4174 8.92079 14.5769C9.17771 14.8009 9.41942 15.0369 9.65907 15.2791C9.70377 15.324 9.74846 15.3689 9.79451 15.4152C9.94294 15.5644 10.0912 15.7138 10.2394 15.8632C10.3463 15.9708 10.4532 16.0783 10.5601 16.1858C10.7601 16.3868 10.96 16.5879 11.1598 16.7891C11.5524 17.1843 11.9454 17.5791 12.3386 17.9737C12.4007 18.0359 12.4627 18.0982 12.5247 18.1605C12.6187 18.2548 12.7127 18.3492 12.8067 18.4435C13.1603 18.7984 13.5138 19.1533 13.8673 19.5082C13.9157 19.5568 13.9157 19.5568 13.9651 19.6064C14.4888 20.1323 15.0118 20.6586 15.5347 21.1852C16.0724 21.7267 16.6108 22.2675 17.1499 22.8076C17.4819 23.1404 17.8134 23.4737 18.1441 23.8077C18.3975 24.0636 18.652 24.3185 18.9068 24.573C19.011 24.6774 19.1148 24.7822 19.2184 24.8872C19.3599 25.0308 19.5025 25.1731 19.6455 25.3152C19.6861 25.3569 19.7266 25.3986 19.7685 25.4416C20.1591 25.8251 20.5617 25.9601 21.1087 25.9624C21.1878 25.9632 21.2669 25.964 21.3485 25.9648C21.4344 25.9647 21.5203 25.9646 21.6062 25.9645C21.698 25.9651 21.7899 25.9657 21.8817 25.9665C22.1295 25.9682 22.3772 25.9688 22.625 25.9691C22.8845 25.9697 23.144 25.9714 23.4035 25.9729C23.8942 25.9756 24.3849 25.9774 24.8756 25.9788C25.4346 25.9805 25.9935 25.9833 26.5525 25.9861C27.7017 25.9919 28.8508 25.9964 30 26C30.0074 26.2552 30.0117 26.5104 30.0156 26.7656C30.0177 26.8368 30.0198 26.9081 30.022 26.9814C30.0323 27.8944 29.721 28.5709 29.1055 29.2344C28.4584 29.8467 27.7273 30.0288 26.8585 30.0253C26.7474 30.0259 26.7474 30.0259 26.634 30.0266C26.4325 30.0275 26.2311 30.0276 26.0296 30.0272C25.8604 30.0271 25.6911 30.0274 25.5219 30.0278C25.1218 30.0287 24.7217 30.0286 24.3216 30.0279C23.9116 30.0272 23.5015 30.028 23.0915 30.0297C22.7372 30.0311 22.3829 30.0315 22.0287 30.0311C21.8181 30.0309 21.6075 30.0312 21.3969 30.0322C20.3281 30.0364 19.3178 30.0318 18.3516 29.5156C18.3136 29.4971 18.2757 29.4786 18.2366 29.4595C17.6267 29.1462 17.1329 28.6514 16.6534 28.1705C16.5968 28.1142 16.5401 28.0579 16.4818 27.9999C16.3263 27.8453 16.1712 27.6903 16.0161 27.5352C15.8482 27.3674 15.6799 27.1999 15.5117 27.0324C15.1447 26.6669 14.7783 26.3009 14.4119 25.9349C14.1828 25.706 13.9537 25.4772 13.7245 25.2485C13.089 24.6142 12.4535 23.9798 11.8186 23.345C11.778 23.3045 11.7375 23.2639 11.6957 23.2222C11.6135 23.14 11.5313 23.0579 11.4492 22.9757C11.4084 22.9349 11.3676 22.8942 11.3255 22.8521C11.2847 22.8113 11.2439 22.7705 11.2018 22.7284C10.5397 22.0666 9.87688 21.4054 9.21373 20.7446C8.53165 20.0649 7.85016 19.3846 7.16926 18.7037C6.78744 18.322 6.40538 17.9404 6.02267 17.5595C5.69693 17.2353 5.37174 16.9106 5.04724 16.5851C4.88188 16.4193 4.71628 16.2538 4.54999 16.0889C4.36923 15.9097 4.18971 15.7293 4.01028 15.5487C3.95824 15.4975 3.9062 15.4463 3.85258 15.3935C3.18481 14.7161 2.80234 13.9636 2.78516 13.0078C2.79392 11.9762 3.2515 11.2287 3.96484 10.5195C4.10058 10.3869 4.23742 10.2557 4.375 10.125Z" fill="white"/>
<path d="M3.07569 27.9682C3.14162 27.9676 3.14162 27.9676 3.20888 27.967C3.35542 27.9661 3.5019 27.9668 3.64844 27.9676C3.7538 27.9673 3.85916 27.9668 3.96451 27.9663C4.25015 27.9652 4.53577 27.9656 4.82142 27.9664C5.12053 27.967 5.41964 27.9664 5.71875 27.966C6.22104 27.9656 6.72331 27.9662 7.22559 27.9674C7.80606 27.9687 8.38651 27.9683 8.96698 27.9669C9.46561 27.9658 9.96424 27.9656 10.4629 27.9663C10.7606 27.9667 11.0583 27.9667 11.356 27.9659C11.6359 27.9652 11.9157 27.9657 12.1956 27.9671C12.2983 27.9675 12.4009 27.9674 12.5036 27.9668C12.6438 27.9661 12.784 27.967 12.9243 27.9682C13.0028 27.9683 13.0812 27.9684 13.162 27.9685C13.4861 28.0164 13.6769 28.173 13.8984 28.4062C14.0483 28.729 14.0471 29.025 14 29.375C13.8556 29.6859 13.67 29.8324 13.375 30C13.162 30.0314 13.162 30.0314 12.9243 30.0317C12.8584 30.0323 12.8584 30.0323 12.7911 30.0329C12.6446 30.0339 12.4981 30.0331 12.3516 30.0323C12.2462 30.0327 12.1409 30.0331 12.0355 30.0337C11.7499 30.0348 11.4642 30.0344 11.1786 30.0336C10.8795 30.0329 10.5804 30.0335 10.2813 30.0339C9.77897 30.0344 9.2767 30.0338 8.77442 30.0326C8.19395 30.0312 7.6135 30.0317 7.03303 30.033C6.5344 30.0342 6.03577 30.0343 5.53714 30.0337C5.23944 30.0333 4.94175 30.0332 4.64405 30.0341C4.36415 30.0348 4.08427 30.0343 3.80438 30.0328C3.70173 30.0325 3.59909 30.0326 3.49645 30.0331C3.35616 30.0338 3.21597 30.033 3.07569 30.0317C2.99725 30.0316 2.91881 30.0315 2.83799 30.0314C2.51392 29.9836 2.32313 29.8269 2.10157 29.5937C1.95169 29.2709 1.95289 28.975 2 28.625C2.21838 28.1546 2.56859 27.9688 3.07569 27.9682Z" fill="white"/>
<path d="M3.09766 21.9676C3.14344 21.9672 3.18922 21.9667 3.23639 21.9663C3.38679 21.9652 3.53711 21.9659 3.68751 21.9668C3.79257 21.9666 3.89763 21.9664 4.00269 21.966C4.22251 21.9657 4.4423 21.9662 4.66211 21.9674C4.94332 21.9688 5.22446 21.968 5.50567 21.9665C5.7225 21.9656 5.93933 21.9659 6.15616 21.9665C6.25982 21.9667 6.36348 21.9665 6.46714 21.9659C6.61224 21.9653 6.75725 21.9662 6.90235 21.9676C6.98477 21.9678 7.06719 21.968 7.1521 21.9682C7.48299 22.0154 7.67234 22.1682 7.89844 22.4062C8.04832 22.729 8.04712 23.025 8.00001 23.375C7.85569 23.6858 7.67048 23.8332 7.37501 24C7.1521 24.0317 7.1521 24.0317 6.90235 24.0323C6.85657 24.0328 6.81079 24.0332 6.76362 24.0336C6.61322 24.0347 6.4629 24.034 6.31251 24.0332C6.20744 24.0333 6.10238 24.0336 5.99732 24.0339C5.7775 24.0343 5.55771 24.0337 5.3379 24.0326C5.05669 24.0311 4.77555 24.032 4.49434 24.0335C4.27751 24.0344 4.06068 24.0341 3.84385 24.0334C3.74019 24.0333 3.63653 24.0335 3.53287 24.034C3.38777 24.0347 3.24276 24.0337 3.09766 24.0323C3.01524 24.0321 2.93282 24.0319 2.84791 24.0317C2.51702 23.9846 2.32767 23.8317 2.10157 23.5937C1.95169 23.2709 1.95289 22.975 2 22.625C2.22402 22.1425 2.5804 21.9689 3.09766 21.9676Z" fill="white"/>
</svg>
