<svg width="18" height="18" viewBox="0 0 18 18" fill="none" xmlns="http://www.w3.org/2000/svg">
<path d="M17.25 8.54168C17.2531 9.75156 16.9705 10.9451 16.425 12.025C15.7782 13.3191 14.7839 14.4076 13.5535 15.1685C12.323 15.9294 10.905 16.3328 9.45832 16.3333C8.24844 16.3365 7.05493 16.0538 5.97499 15.5083L0.75 17.25L2.49166 12.025C1.94618 10.9451 1.66351 9.75156 1.66667 8.54168C1.66723 7.09496 2.07056 5.67696 2.83149 4.44652C3.59242 3.21608 4.68089 2.22179 5.97499 1.57502C7.05493 1.02955 8.24844 0.746872 9.45832 0.750026H9.91665C11.8273 0.855435 13.6319 1.66189 14.985 3.01498C16.3381 4.36806 17.1446 6.1727 17.25 8.08335V8.54168Z" fill="white" stroke="white" stroke-width="1.5" stroke-linecap="round" stroke-linejoin="round"/>
</svg>
